<?xml version="1.0" encoding="utf-8"?>
<!-- Generator: Adobe Illustrator 19.0.1, SVG Export Plug-In . SVG Version: 6.00 Build 0)  -->
<!DOCTYPE svg PUBLIC "-//W3C//DTD SVG 1.1//EN" "http://www.w3.org/Graphics/SVG/1.1/DTD/svg11.dtd">
<svg version="1.1" id="Layer_1" xmlns="http://www.w3.org/2000/svg" xmlns:xlink="http://www.w3.org/1999/xlink" x="0px" y="0px"
	 viewBox="0 0 56 56" enable-background="new 0 0 56 56" xml:space="preserve">
<g>
	<defs>
		<rect id="SVGID_5_" x="5.6" y="0" width="44.9" height="56"/>
	</defs>
	<clipPath id="SVGID_2_">
		<use xlink:href="#SVGID_5_"  overflow="visible"/>
	</clipPath>
	<path clip-path="url(#SVGID_2_)" fill="#8E908F" d="M18.4,13.5h19.2c0.8,0,1.4-0.6,1.4-1.4c0-0.8-0.6-1.4-1.4-1.4H18.4
		c-0.8,0-1.4,0.6-1.4,1.4C17.1,12.9,17.7,13.5,18.4,13.5"/>
	<path clip-path="url(#SVGID_2_)" fill="#8E908F" d="M37.6,17.2H18.4c-0.8,0-1.4,0.6-1.4,1.4c0,0.8,0.6,1.4,1.4,1.4h19.2
		c0.8,0,1.4-0.6,1.4-1.4C38.9,17.8,38.3,17.2,37.6,17.2"/>
	<path clip-path="url(#SVGID_2_)" fill="#8E908F" d="M37.6,23.6H18.4c-0.8,0-1.4,0.6-1.4,1.4c0,0.8,0.6,1.4,1.4,1.4h19.2
		c0.8,0,1.4-0.6,1.4-1.4C38.9,24.2,38.3,23.6,37.6,23.6"/>
	<path clip-path="url(#SVGID_2_)" fill="#8E908F" d="M37.6,29.9H18.4c-0.8,0-1.4,0.6-1.4,1.4c0,0.8,0.6,1.4,1.4,1.4h19.2
		c0.8,0,1.4-0.6,1.4-1.4C38.9,30.6,38.3,29.9,37.6,29.9"/>
	<path clip-path="url(#SVGID_2_)" fill="#8E908F" d="M37.6,36.2H18.4c-0.8,0-1.4,0.6-1.4,1.4c0,0.8,0.6,1.4,1.4,1.4h19.2
		c0.8,0,1.4-0.6,1.4-1.4C38.9,36.8,38.3,36.2,37.6,36.2"/>
	<path clip-path="url(#SVGID_2_)" fill="#8E908F" d="M37.6,42.6H18.4c-0.8,0-1.4,0.6-1.4,1.4c0,0.8,0.6,1.4,1.4,1.4h19.2
		c0.8,0,1.4-0.6,1.4-1.4C38.9,43.2,38.3,42.6,37.6,42.6"/>
	<path clip-path="url(#SVGID_2_)" fill="#8E908F" d="M46.2,46.9v2.5c0,1.3-1,2.3-2.3,2.3H12.2c-1.3,0-2.3-1-2.3-2.3V6.6
		c0-1.3,1-2.3,2.3-2.3h31.7c1.3,0,2.3,1,2.3,2.3v37.3V46.9z M43.8,0H12.2C8.5,0,5.6,3,5.6,6.6v42.8c0,3.6,3,6.6,6.6,6.6h31.7
		c3.6,0,6.6-3,6.6-6.6v-4.7v-3V6.6C50.4,3,47.5,0,43.8,0"/>
</g>
</svg>
