<?xml version="1.0" encoding="utf-8"?>
<!-- Generator: Adobe Illustrator 19.0.1, SVG Export Plug-In . SVG Version: 6.00 Build 0)  -->
<!DOCTYPE svg PUBLIC "-//W3C//DTD SVG 1.1//EN" "http://www.w3.org/Graphics/SVG/1.1/DTD/svg11.dtd">
<svg version="1.1" id="Layer_1" xmlns="http://www.w3.org/2000/svg" xmlns:xlink="http://www.w3.org/1999/xlink" x="0px" y="0px"
	 viewBox="0 0 56 56" enable-background="new 0 0 56 56" xml:space="preserve">
<g>
	<defs>
		<rect id="SVGID_1_" width="56" height="56"/>
	</defs>
	<clipPath id="SVGID_2_">
		<use xlink:href="#SVGID_1_"  overflow="visible"/>
	</clipPath>
	<path clip-path="url(#SVGID_2_)" fill="#37424A" d="M42,26.9c-0.1-4.4-0.7-8.4-1.7-12c2.1-0.9,4-2,5.8-3.4
		c3.7,4.1,6.1,9.5,6.4,15.4H42z M46.1,44.5c-1.8-1.4-3.7-2.5-5.8-3.4c1-3.6,1.6-7.6,1.7-12h10.5C52.2,35,49.8,40.4,46.1,44.5
		 M14,29.1c0.1,4.4,0.7,8.4,1.7,12c-2.1,0.9-4,2-5.8,3.4C6.2,40.4,3.8,35,3.6,29.1H14z M9.9,11.5c1.8,1.4,3.7,2.5,5.8,3.4
		c-1,3.6-1.6,7.6-1.7,12H3.6C3.8,21,6.2,15.6,9.9,11.5 M34.8,4.5c3.6,1.1,6.9,2.9,9.7,5.4C43,11,41.3,12,39.6,12.8
		C38.4,9.3,36.7,6.5,34.8,4.5 M29.1,15.2V3.6c0.1,0,0.1,0,0.2,0c3.3,0.8,6.3,4.6,8.2,10C34.9,14.5,32,15.1,29.1,15.2 M29.1,26.9
		v-9.5c3.2-0.1,6.2-0.7,9.1-1.7c0.9,3.3,1.5,7.2,1.6,11.2H29.1z M29.1,38.6v-9.5h10.7c-0.1,4-0.7,7.8-1.6,11.2
		C35.3,39.3,32.3,38.7,29.1,38.6 M21.2,51.5c-3.6-1.1-6.9-2.9-9.7-5.4c1.5-1.1,3.1-2.1,4.9-2.9C17.6,46.7,19.3,49.5,21.2,51.5
		 M26.9,40.8v11.6c-0.1,0-0.1,0-0.2,0c-3.3-0.8-6.3-4.6-8.2-10C21.1,41.4,24,40.9,26.9,40.8 M26.9,29.1v9.5
		c-3.2,0.1-6.2,0.7-9.1,1.7c-0.9-3.3-1.5-7.1-1.6-11.2H26.9z M26.9,17.4v9.5H16.2c0.1-4,0.7-7.8,1.6-11.2
		C20.7,16.7,23.7,17.3,26.9,17.4 M26.7,3.6c0.1,0,0.1,0,0.2,0v11.6c-2.9-0.1-5.8-0.6-8.4-1.6C20.4,8.2,23.4,4.3,26.7,3.6 M21.2,4.5
		c-1.9,2-3.6,4.8-4.8,8.3C14.7,12,13,11,11.5,9.9C14.3,7.4,17.6,5.6,21.2,4.5 M39.6,43.2c1.7,0.8,3.4,1.7,4.9,2.9
		c-2.7,2.5-6,4.4-9.7,5.4C36.7,49.5,38.4,46.7,39.6,43.2 M29.3,52.4c-0.1,0-0.1,0-0.2,0V40.8c2.9,0.1,5.8,0.6,8.4,1.6
		C35.6,47.8,32.6,51.7,29.3,52.4 M28,0C12.6,0,0,12.6,0,28s12.6,28,28,28c15.4,0,28-12.6,28-28S43.4,0,28,0"/>
</g>
</svg>
