<?xml version="1.0" encoding="utf-8"?>
<!-- Generator: Adobe Illustrator 19.0.1, SVG Export Plug-In . SVG Version: 6.00 Build 0)  -->
<!DOCTYPE svg PUBLIC "-//W3C//DTD SVG 1.1//EN" "http://www.w3.org/Graphics/SVG/1.1/DTD/svg11.dtd">
<svg version="1.1" id="Layer_1" xmlns="http://www.w3.org/2000/svg" xmlns:xlink="http://www.w3.org/1999/xlink" x="0px" y="0px"
	 viewBox="0 0 56 56" enable-background="new 0 0 56 56" xml:space="preserve">
<g>
	<defs>
		<rect id="SVGID_3_" width="56" height="56"/>
	</defs>
	<clipPath id="SVGID_2_">
		<use xlink:href="#SVGID_3_"  overflow="visible"/>
	</clipPath>
	<path clip-path="url(#SVGID_2_)" fill="#37424A" d="M28,25.6c-1.3,0-2.4,1.1-2.4,2.4c0,1.3,1.1,2.4,2.4,2.4c1.3,0,2.4-1.1,2.4-2.4
		C30.4,26.7,29.3,25.6,28,25.6"/>
	<path clip-path="url(#SVGID_2_)" fill="#37424A" d="M29.7,50.3c0-0.1,0-0.2,0-0.2v-0.8c0-1-0.8-1.7-1.7-1.7c-1,0-1.7,0.8-1.7,1.7
		V50c0,0.1,0,0.2,0,0.2c-11-0.8-19.8-9.6-20.6-20.6c0.1,0,0.2,0,0.2,0h0.8c0.9,0,1.7-0.8,1.7-1.7c0-0.9-0.8-1.7-1.7-1.7H6
		c-0.1,0-0.2,0-0.2,0c0.8-11,9.6-19.8,20.6-20.6c0,0.1,0,0.2,0,0.2v0.8c0,1,0.8,1.7,1.7,1.7c0.9,0,1.7-0.8,1.7-1.7V6
		c0-0.1,0-0.2,0-0.2c11,0.8,19.8,9.6,20.6,20.6c-0.1,0-0.2,0-0.2,0h-0.8c-1,0-1.7,0.8-1.7,1.7c0,0.9,0.8,1.7,1.7,1.7H50
		c0.1,0,0.2,0,0.2,0C49.5,40.7,40.7,49.5,29.7,50.3 M28,0C12.5,0,0,12.5,0,28s12.5,28,28,28s28-12.5,28-28S43.5,0,28,0"/>
	<path clip-path="url(#SVGID_2_)" fill="#37424A" d="M37.6,10.9c-0.8-0.4-1.7-0.2-2.1,0.6l-6.2,11c-0.4,0.8-0.2,1.7,0.6,2.1
		c0.8,0.4,1.7,0.2,2.1-0.6l6.2-11C38.6,12.3,38.3,11.3,37.6,10.9"/>
	<path clip-path="url(#SVGID_2_)" fill="#37424A" d="M22.6,26.4h-8c-0.9,0-1.6,0.7-1.6,1.6c0,0.9,0.7,1.6,1.6,1.6h8
		c0.9,0,1.6-0.7,1.6-1.6C24.2,27.1,23.5,26.4,22.6,26.4"/>
</g>
</svg>
